<svg width="24" height="24" viewBox="0 0 24 24" fill="none" xmlns="http://www.w3.org/2000/svg">
<path fill-rule="evenodd" clip-rule="evenodd" d="M19.3936 2.08072C19.7614 2.23821 20 2.59985 20 3.00002V21C20 21.5523 19.5523 22 19 22H18C17.4477 22 17 21.5523 17 21V18C17 17.8925 17.0173 17.7858 17.0513 17.6838L17.6126 16H14C13.4502 16 13.0035 15.5561 13 15.0063C12.9884 13.1521 13.0302 11.1597 13.7361 9.02806C14.4467 6.88184 15.8038 4.66686 18.3098 2.27644C18.5993 2.00022 19.0257 1.92323 19.3936 2.08072ZM18 14V5.52626C16.7745 7.00998 16.0593 8.37451 15.6347 9.65674C15.148 11.1266 15.0253 12.5371 15.0029 14H18ZM5 3.00002C5.55228 3.00002 6 3.44774 6 4.00002V7.00002C6 7.53046 6.21071 8.03917 6.58579 8.41424C6.71046 8.53891 6.8499 8.64543 7 8.73208V4.00002C7 3.44774 7.44772 3.00002 8 3.00002C8.55228 3.00002 9 3.44774 9 4.00002V8.73208C9.1501 8.64543 9.28954 8.53891 9.41421 8.41424C9.78929 8.03917 10 7.53046 10 7.00002V4.00002C10 3.44774 10.4477 3.00002 11 3.00002C11.5523 3.00002 12 3.44774 12 4.00002V7.00002C12 8.06089 11.5786 9.07831 10.8284 9.82845C10.3189 10.338 9.68603 10.6959 9 10.873V21C9 21.5523 8.55228 22 8 22C7.44772 22 7 21.5523 7 21V10.873C6.31397 10.6959 5.68111 10.338 5.17157 9.82845C4.42143 9.07831 4 8.06089 4 7.00002V4.00002C4 3.44774 4.44772 3.00002 5 3.00002Z" fill="#7E8085"/>
</svg>
