<svg width="32" height="32" viewBox="0 0 32 32" fill="none" xmlns="http://www.w3.org/2000/svg">
<path d="M32 32L23.947 22.6855H31.8569V20.8274H26.9805V11.397C27.499 11.0818 27.8462 10.5115 27.8462 9.86157C27.8462 8.87183 27.041 8.06665 26.0513 8.06665C25.0618 8.06665 24.2563 8.87183 24.2563 9.86157C24.2563 10.4426 24.5342 10.9597 24.9636 11.2881C24.459 11.9912 23.7627 12.6157 22.906 13.1392L22.9993 0H9.15527V13.1765C8.27026 12.6455 7.55322 12.0081 7.03638 11.2881C7.46582 10.9597 7.74365 10.4426 7.74365 9.86157C7.74365 8.87183 6.93823 8.06665 5.94873 8.06665C4.95898 8.06665 4.15381 8.87183 4.15381 9.86157C4.15381 10.5115 4.50098 11.0818 5.01953 11.397V20.8274H0.143066V22.6855H8.05298L0 32H32ZM11.0134 20.8274V16.0068C12.5227 16.4709 14.2102 16.7217 16 16.7217C17.8059 16.7217 19.5078 16.4666 21.0273 15.9944L20.9932 20.8274H11.0134ZM18.3323 22.6855L21.7637 30.1418H10.1934L13.3796 22.6855H18.3323ZM27.937 30.1418H23.8093L20.3779 22.6855H21.4907L27.937 30.1418ZM25.1223 13.8252V20.8274H22.8513L22.8909 15.2625C23.7244 14.8577 24.4746 14.376 25.1223 13.8252ZM21.1277 1.85815L21.0413 14.0251C19.531 14.5742 17.8015 14.8635 16 14.8635C14.2205 14.8635 12.5107 14.5815 11.0134 14.0454V1.85815H21.1277ZM6.87769 13.8252C7.53735 14.3862 8.30347 14.875 9.15527 15.2842V20.8271H6.87769V13.8252ZM11.3589 22.6855L8.17261 30.1418H4.06299L10.5093 22.6855H11.3589Z" fill="#7E8085"/>
</svg>
