<svg width="32" height="32" viewBox="0 0 32 32" fill="none" xmlns="http://www.w3.org/2000/svg">
<g clip-path="url(#clip0)">
<path d="M30.0839 16C29.6217 9.48311 24.3995 4.26089 17.8826 3.79865V1.88235H19.7649V0H14.1179V1.88235H16.0002V3.79865C9.48332 4.26089 4.26111 9.48311 3.79887 16H1.88257V17.8824H32.0002V16H30.0839ZM16.9414 5.64706C22.852 5.64706 27.7161 10.2111 28.196 16H5.6868C6.16668 10.2111 11.0308 5.64706 16.9414 5.64706Z" fill="#7E8085"/>
<path d="M28.4195 20.2824L28.3759 20.2913L18.6121 23.2644C18.2455 22.3098 17.4286 21.5658 16.3685 21.3159C16.3152 21.3023 17.0163 21.4814 10.5923 19.8408C9.98996 19.7117 9.36245 19.7465 8.78356 19.9395C8.55956 20.0127 9.6758 19.6478 6.14576 20.8019C4.46381 21.3626 2.71272 21.6469 0.941177 21.6469H0V30.1175H4.73663C6.53089 30.1175 8.33437 30.2875 10.0971 30.6228L16.73 31.8846C17.5418 32.0995 18.4018 32.0124 19.1563 31.635L30.3554 25.874C31.3699 25.3643 32 24.3429 32 23.2071C32 21.321 30.2716 19.9056 28.4195 20.2824ZM29.5083 24.193L18.3099 29.9537C17.9629 30.1258 17.5665 30.1638 17.193 30.0598L17.1554 30.0494L10.4488 28.7736C8.57054 28.4164 6.64866 28.2351 4.73663 28.2351H1.88235V23.5052C3.53493 23.4205 5.16518 23.1129 6.74102 22.5877L9.37337 21.727C9.63382 21.6401 9.91316 21.6233 10.1821 21.678C10.2419 21.6933 9.49064 21.5014 15.932 23.147C16.566 23.2942 16.9886 23.8732 16.937 24.5238C16.8688 25.3851 16.1264 25.8841 15.275 25.6716L10.5813 24.4982L10.1248 26.3243L14.8186 27.4978C16.5805 27.9384 18.3042 26.9548 18.7302 25.1961L28.8326 22.1199C29.5036 22.0068 30.1178 22.5239 30.1178 23.2071C30.1176 23.6274 29.8841 24.0052 29.5083 24.193Z" fill="#7E8085"/>
</g>
<defs>
<clipPath id="clip0">
<rect width="32" height="32" fill="white"/>
</clipPath>
</defs>
</svg>
