<svg width="24" height="24" viewBox="0 0 24 24" fill="none" xmlns="http://www.w3.org/2000/svg">
<path fill-rule="evenodd" clip-rule="evenodd" d="M11.9993 0.986328C9.00933 0.986328 8.63505 0.999235 7.46056 1.05086C6.29038 1.10249 5.48588 1.29178 4.78893 1.56282C4.06187 1.84676 3.44667 2.22104 2.83576 2.83625C2.22055 3.44715 1.84627 4.06236 1.56233 4.78512C1.29129 5.48637 1.102 6.28657 1.05037 7.45675C0.998746 8.63554 0.98584 9.00982 0.98584 11.9998C0.98584 14.9898 0.998746 15.3641 1.05037 16.5386C1.102 17.7088 1.29129 18.5133 1.56233 19.2102C1.84627 19.9373 2.22055 20.5525 2.83576 21.1634C3.44667 21.7743 4.06187 22.1529 4.78463 22.4325C5.48588 22.7035 6.28608 22.8928 7.45626 22.9445C8.63075 22.9961 9.00503 23.009 11.995 23.009C14.985 23.009 15.3593 22.9961 16.5338 22.9445C17.704 22.8928 18.5085 22.7035 19.2054 22.4325C19.9282 22.1529 20.5434 21.7743 21.1543 21.1634C21.7652 20.5525 22.1438 19.9373 22.4234 19.2145C22.6944 18.5133 22.8837 17.7131 22.9354 16.5429C22.987 15.3684 22.9999 14.9941 22.9999 12.0041C22.9999 9.01412 22.987 8.63984 22.9354 7.46535C22.8837 6.29517 22.6944 5.49067 22.4234 4.79372C22.1524 4.06236 21.7781 3.44715 21.1629 2.83625C20.552 2.22535 19.9368 1.84676 19.214 1.56712C18.5128 1.29608 17.7126 1.10679 16.5424 1.05516C15.3636 0.999235 14.9893 0.986328 11.9993 0.986328ZM17.8804 7.4395C18.6074 7.4395 19.2011 6.8501 19.2011 6.11874C19.2011 5.39168 18.6074 4.79798 17.8804 4.79798C17.1533 4.79798 16.5596 5.38738 16.5596 6.11874C16.5596 6.8458 17.149 7.4395 17.8804 7.4395ZM6.34201 11.9998C6.34201 8.87645 8.87597 6.34249 11.9993 6.34249C15.1227 6.34249 17.6566 8.87645 17.6566 11.9998C17.6566 15.1232 15.1227 17.6571 11.9993 17.6571C8.87597 17.6571 6.34201 15.1232 6.34201 11.9998ZM8.3296 11.9998C8.3296 14.0261 9.97301 15.6695 11.9993 15.6695C14.0256 15.6695 15.669 14.0261 15.669 11.9998C15.669 9.9735 14.0256 8.33008 11.9993 8.33008C9.97301 8.33008 8.3296 9.9735 8.3296 11.9998Z" fill="#96999E"/>
</svg>
