<svg width="32" height="32" viewBox="0 0 32 32" fill="none" xmlns="http://www.w3.org/2000/svg">
<path d="M31.9786 13.8511C31.777 12.883 27.8038 7.23975 27.8038 7.23975C27.8038 7.23975 31.1789 3.95656 31.4024 3.56703C31.6242 3.1775 32.4792 2.30433 31.3894 1.4017C30.2987 0.500706 29.5177 1.08337 29.1317 1.43116C28.7441 1.78059 25.8452 4.39519 25.8452 4.39519C25.8452 4.39519 19.9604 0.080897 18.9885 0.00479124C18.0173 -0.0721329 17.3688 0.802674 17.3688 0.802674L23.3551 6.8805L20.4212 10.3658L17.8003 9.59576L16.3513 10.4943C16.3513 10.4943 19.2274 11.757 19.7963 12.4845C20.366 13.212 21.1169 15.6269 21.1169 15.6269L22.4977 14.8945L21.8532 11.7153L25.1836 9.04583L30.8928 15.3503C30.8928 15.3503 32.1801 14.8192 31.9786 13.8511Z" fill="white"/>
<path d="M15.0134 1.76457C15.239 1.76457 15.4634 1.76958 15.6866 1.7795L17.8342 3.95997C16.9255 3.75978 15.9817 3.65429 15.0134 3.65429C7.75819 3.65429 1.87668 9.57666 1.87668 16.8823C1.87668 17.857 1.98136 18.807 2.18003 19.7216C4.21902 24.7983 7.64624 23.6059 17.4222 14.9553C7.84359 24.6004 6.32293 27.2908 12.0561 29.7738C13.0066 29.9939 13.9965 30.1103 15.0134 30.1103C22.2686 30.1103 28.1501 24.1879 28.1501 16.8823C28.1501 16.2358 28.1041 15.6002 28.0151 14.9785L30.0236 17.1965C29.8575 25.4007 23.2008 32 15.0134 32C6.72173 32 9.49151e-07 25.2316 0 16.8823C0 8.533 6.72173 1.76457 15.0134 1.76457Z" fill="white"/>
</svg>
