<svg width="32" height="32" viewBox="0 0 32 32" fill="none" xmlns="http://www.w3.org/2000/svg">
<path d="M27.3137 4.68625C24.2917 1.66431 20.2738 0 16 0C11.7262 0 7.70831 1.66431 4.68625 4.68625C1.66431 7.70831 0 11.7262 0 16C0 20.2738 1.66431 24.2917 4.68625 27.3137C7.70831 30.3357 11.7262 32 16 32C20.2738 32 24.2917 30.3357 27.3137 27.3137C30.3357 24.2917 32 20.2738 32 16C32 11.7262 30.3357 7.70831 27.3137 4.68625ZM30.0931 15.0625H23.1754C23.1212 12.8729 22.8774 10.7656 22.4629 8.84944C24.229 8.5125 25.8476 8.03738 27.229 7.44175C28.8667 9.58537 29.9052 12.2094 30.0931 15.0625ZM25.9179 5.95306C24.7583 6.4015 23.4345 6.76444 22.0015 7.03137C21.7892 6.31125 21.5502 5.62825 21.2853 4.98987C20.8709 3.99119 20.4043 3.13206 19.8958 2.42169C22.1968 3.08288 24.2584 4.31469 25.9179 5.95306ZM10.6999 15.0625C10.7559 12.8775 11.0057 10.8839 11.3894 9.14531C12.8678 9.33712 14.4198 9.4375 16 9.4375C17.5802 9.4375 19.1322 9.33712 20.6106 9.14531C20.9944 10.8839 21.2441 12.8774 21.3001 15.0625H10.6999ZM21.3001 16.9375C21.2441 19.1225 20.9943 21.1161 20.6106 22.8547C19.1322 22.6629 17.5802 22.5625 16 22.5625C14.4198 22.5625 12.8678 22.6629 11.3894 22.8547C11.0056 21.1161 10.7559 19.1226 10.6999 16.9375H21.3001ZM16 1.875C17.4909 1.875 19.0829 3.91744 20.1311 7.31738C18.8069 7.47806 17.4178 7.5625 16 7.5625C14.5822 7.5625 13.1931 7.47806 11.8689 7.31738C12.9171 3.91744 14.5091 1.875 16 1.875ZM12.1042 2.42169C11.5957 3.13213 11.1291 3.99125 10.7147 4.98987C10.4498 5.62825 10.2108 6.31125 9.99856 7.03131C8.56556 6.76437 7.24175 6.40144 6.08213 5.95306C7.74163 4.31469 9.80325 3.08288 12.1042 2.42169ZM4.771 7.44175C6.15244 8.03744 7.771 8.51256 9.53712 8.84944C9.12262 10.7656 8.87881 12.8729 8.82456 15.0625H1.90688C2.09475 12.2094 3.13331 9.58537 4.771 7.44175ZM1.90688 16.9375H8.82456C8.87881 19.1271 9.12262 21.2344 9.53712 23.1506C7.771 23.4875 6.15244 23.9626 4.771 24.5583C3.13331 22.4146 2.09475 19.7906 1.90688 16.9375ZM6.082 26.0469C7.24169 25.5985 8.5655 25.2356 9.9985 24.9686C10.2107 25.6887 10.4497 26.3717 10.7146 27.0101C11.129 28.0088 11.5957 28.8679 12.1041 29.5783C9.80319 28.9171 7.7415 27.6853 6.082 26.0469ZM16 30.125C14.5091 30.125 12.9171 28.0826 11.8689 24.6826C13.1931 24.5219 14.5822 24.4375 16 24.4375C17.4178 24.4375 18.8069 24.5219 20.1311 24.6826C19.0829 28.0826 17.4909 30.125 16 30.125ZM19.8958 29.5783C20.4043 28.8679 20.8709 28.0087 21.2853 27.0101C21.5502 26.3717 21.7893 25.6887 22.0014 24.9687C23.4344 25.2356 24.7583 25.5986 25.9179 26.0469C24.2584 27.6853 22.1968 28.9171 19.8958 29.5783ZM27.229 24.5583C25.8476 23.9626 24.229 23.4874 22.4629 23.1506C22.8774 21.2344 23.1212 19.1271 23.1754 16.9375H30.0931C29.9052 19.7906 28.8667 22.4146 27.229 24.5583Z" fill="#7E8085"/>
</svg>
